<svg width="800" height="600" xmlns="http://www.w3.org/2000/svg">
 <g id="Layer_1">
  <title>Layer 1</title>
  <path stroke="#000" id="svg_15" d="m180.30996,333.07l0,0c0,-122.88335 104.98924,-222.50001 234.50001,-222.50001l0,0c62.19324,0 121.83927,23.44188 165.81652,65.16873c43.9773,41.72686 68.6835,98.32059 68.6835,157.33128l0,0c0,122.88333 -104.98924,222.50001 -234.50001,222.50001l0,0c-129.51075,0 -234.50001,-99.61667 -234.50001,-222.50001zm117.25001,0l0,0c0,61.44166 52.49465,111.25 117.25001,111.25c64.7554,0 117.25001,-49.80834 117.25001,-111.25c0,-61.44166 -52.49464,-111.25 -117.25001,-111.25l0,0c-64.75535,0 -117.25001,49.80836 -117.25001,111.25z" stroke-width="4" fill="#ffffff"/>
  <path id="svg_11" d="m376.60502,275.37l0,0c0,-0.41145 0.22385,-0.745 0.49999,-0.745l0,0c0.13261,0 0.25978,0.07849 0.35355,0.21821c0.09377,0.13971 0.14644,0.32921 0.14644,0.52679l0,0c0,0.41145 -0.22385,0.745 -0.49999,0.745l0,0c-0.27614,0 -0.49999,-0.33355 -0.49999,-0.745zm0.25,0l0,0c0,0.20573 0.11193,0.3725 0.25,0.3725c0.13807,0 0.25,-0.16677 0.25,-0.3725c0,-0.20573 -0.11193,-0.3725 -0.25,-0.3725l0,0c-0.13807,0 -0.25,0.16677 -0.25,0.3725z" stroke-width="0" stroke="#000" fill="#ffffff"/>
  <path transform="rotate(33.6682 567.977 223.927)" stroke="#000" id="svg_13" d="m548.54205,315.88593l74.9237,-83.24407l-73.99747,-28.59828l68.39521,-89.36967l27.6139,15.09142l-19.58557,-86.14253l-77.83497,37.58347l32.86318,15.70971l-89.23796,128.36374l81.57357,23.26505l-78.77248,86.74163l44.93332,13.0238l-48.93912,55.12884l17.97816,0.79228l75.94382,-75.63084l-35.85728,-12.71456l-0.00001,0.00002z" stroke-width="2" fill="#2D6862"/>
 </g>

</svg>